HIERARCHY
ROOT hip
{
	OFFSET 0.000000 0.000000 0.000000
	CHANNELS 6 Xposition Yposition Zposition Xrotation Zrotation Yrotation 
	JOINT abdomen
	{
		OFFSET 0.000000 3.422050 0.000000
		CHANNELS 3 Xrotation Zrotation Yrotation 
		JOINT chest
		{
			OFFSET 0.000000 8.486693 -0.684411
			CHANNELS 3 Xrotation Zrotation Yrotation 
			JOINT neck
			{
				OFFSET 0.000000 10.266162 -0.273764
				CHANNELS 3 Xrotation Zrotation Yrotation 
				JOINT head
				{
					OFFSET 0.000000 3.148285 0.000000
					CHANNELS 3 Xrotation Zrotation Yrotation 
					End Site
					{
						OFFSET 0.000000 3.148289 0.000000
					}
				}
			}
			JOINT lCollar
			{
				OFFSET 3.422053 6.707223 -0.821293
				CHANNELS 3 Yrotation Zrotation Xrotation 
				JOINT lShldr
				{
					OFFSET 3.285171 0.000000 0.000000
					CHANNELS 3 Zrotation Yrotation Xrotation 
					JOINT lForeArm
					{
						OFFSET 10.129278 0.000000 0.000000
						CHANNELS 3 Yrotation Zrotation Xrotation 
						JOINT lHand
						{
							OFFSET 8.486692 0.000000 0.000000
							CHANNELS 3 Zrotation Yrotation Xrotation 
							End Site
							{
								OFFSET 4.106464 0.000000 0.000000
							}
						}
					}
				}
			}
			JOINT rCollar
			{
				OFFSET -3.558935 6.707223 -0.821293
				CHANNELS 3 Yrotation Zrotation Xrotation 
				JOINT rShldr
				{
					OFFSET -3.148289 0.000000 0.000000
					CHANNELS 3 Zrotation Yrotation Xrotation 
					JOINT rForeArm
					{
						OFFSET -10.266159 0.000000 0.000000
						CHANNELS 3 Yrotation Zrotation Xrotation 
						JOINT rHand
						{
							OFFSET -8.349810 0.000000 0.000000
							CHANNELS 3 Zrotation Yrotation Xrotation 
							End Site
							{
								OFFSET -4.106464 0.000000 0.000000
							}
						}
					}
				}
			}
		}
	}
	JOINT lThigh
	{
		OFFSET 5.338403 -1.642589 1.368821
		CHANNELS 3 Xrotation Zrotation Yrotation 
		JOINT lShin
		{
			OFFSET -2.053232 -20.121670 0.000000
			CHANNELS 3 Xrotation Zrotation Yrotation 
			JOINT lFoot
			{
				OFFSET 0.000000 -19.300380 -1.231939
				CHANNELS 3 Xrotation Yrotation Zrotation 
				End Site
				{
					OFFSET 0.000000 -2.463878 4.653993
				}
			}
		}
	}
	JOINT rThigh
	{
		OFFSET -5.338403 -1.642589 1.368821
		CHANNELS 3 Xrotation Zrotation Yrotation 
		JOINT rShin
		{
			OFFSET 2.053232 -20.121670 0.000000
			CHANNELS 3 Xrotation Zrotation Yrotation 
			JOINT rFoot
			{
				OFFSET 0.000000 -19.300380 -1.231939
				CHANNELS 3 Xrotation Yrotation Zrotation 
				End Site
				{
					OFFSET 0.000000 -2.463878 4.653993
				}
			}
		}
	}
}
MOTION
Frames: 17
Frame Time: 0.033315
0.000000 43.528500 0.000000 0.000000 0.000000 0.000000 0.000000 0.000000 0.000000 0.000000 0.000000 0.000000 0.000000 0.000000 0.000000 0.000000 0.000000 0.000000 0.000000 0.000000 0.000000 0.000000 0.000000 0.000000 0.000000 0.000000 0.000000 0.000000 0.000000 0.000000 0.000000 0.000000 0.000000 0.000000 0.000000 0.000000 0.000000 0.000000 0.000000 0.000000 0.000000 0.000000 0.000000 0.000000 0.000000 0.000000 0.000000 0.000000 0.000000 0.000000 0.000000 0.000000 0.000000 0.000000 0.000000 0.000000 0.000000 0.000000 0.000000 0.000000 
0.000000 17.999720 0.000000 -90.001877 0.000000 0.000000 0.000000 0.000000 0.000000 -0.082183 0.000000 0.000000 0.000000 1.998697 0.000000 0.000000 19.998167 0.000000 0.000000 0.000000 0.000000 -73.002808 0.000000 0.000000 -81.003273 0.000000 0.000000 -39.001785 0.000000 0.000000 0.000000 0.000000 0.000000 72.998451 0.000001 -0.000001 81.995766 0.000000 0.000000 35.999218 0.000000 0.000000 0.000000 1.998697 0.000000 0.000000 0.000000 0.201081 0.000000 -0.092672 0.000000 -36.000950 -3.002896 -0.000651 77.996605 -0.000001 0.000001 37.997963 0.000000 0.000000 
0.000000 17.999720 0.000000 -90.001877 0.000000 0.000000 0.000000 0.000000 0.000000 -0.082183 0.000000 0.000000 0.000000 1.998697 0.000000 0.000000 19.180641 0.000000 0.000000 0.000000 0.000000 -73.002808 0.000000 0.000000 -81.606964 0.000000 0.000000 -39.001785 0.000000 0.000000 0.000000 0.000000 0.000000 72.998451 0.000001 -0.000001 82.389038 -0.000000 0.000000 35.999218 0.000000 0.000000 0.000000 1.998697 0.000000 0.000000 0.000000 0.201081 0.000000 -0.092672 0.000000 -36.000950 -3.002896 -0.000651 77.996605 -0.000001 0.000001 37.997963 0.000000 0.000000 
0.000000 17.999720 0.000000 -90.001877 0.000000 0.000000 0.000000 0.000000 0.000000 -0.082183 0.000000 0.000000 0.000000 1.998697 0.000000 0.000000 18.361137 0.000000 0.000000 0.000000 0.000000 -73.002808 0.000000 0.000000 -82.211197 0.000000 0.000000 -39.001785 0.000000 0.000000 0.000000 0.000000 0.000000 72.998451 0.000001 -0.000001 82.782425 -0.000000 0.000000 35.999222 0.000000 0.000000 0.000000 1.998697 0.000000 0.000000 0.000000 0.201081 0.000000 -0.092672 0.000000 -36.000950 -3.002896 -0.000651 77.996605 -0.000001 0.000001 37.997963 0.000000 0.000000 
0.000000 17.999720 0.000000 -90.001884 0.000000 0.000000 0.000000 0.000000 0.000000 -0.082183 0.000000 0.000000 0.000000 1.998697 0.000000 0.000000 17.539743 0.000000 0.000000 0.000000 0.000000 -73.002808 0.000000 0.000000 -82.815910 0.000000 0.000000 -39.001789 0.000000 0.000000 0.000000 0.000000 0.000000 72.998451 0.000001 -0.000001 83.175972 -0.000000 0.000000 35.999218 0.000000 0.000000 0.000000 1.998697 0.000000 0.000000 0.000000 0.201081 0.000000 -0.092672 0.000000 -36.000950 -3.002896 -0.000651 77.996605 -0.000001 0.000001 37.997967 0.000000 0.000000 
0.000000 17.999720 0.000000 -90.001884 0.000000 0.000000 0.000000 0.000000 0.000000 -0.082183 0.000000 0.000000 0.000000 1.998697 0.000000 0.000000 16.716522 0.000000 0.000000 0.000000 0.000000 -73.002808 0.000000 0.000000 -83.421097 0.000000 0.000000 -39.001785 0.000000 0.000000 0.000000 0.000000 0.000000 72.998451 0.000001 -0.000001 83.569626 -0.000000 0.000000 35.999218 0.000000 0.000000 0.000000 1.998697 0.000000 0.000000 0.000000 0.201081 0.000000 -0.092672 0.000000 -36.000954 -3.002896 -0.000651 77.996605 -0.000001 0.000001 37.997963 0.000000 0.000000 
0.000000 17.999720 0.000000 -90.001877 0.000000 0.000000 0.000000 0.000000 0.000000 -0.082183 0.000000 0.000000 0.000000 1.998697 0.000000 0.000000 15.891564 0.000000 0.000000 0.000000 0.000000 -73.002808 0.000000 0.000000 -84.026688 0.000000 0.000000 -39.001785 0.000000 0.000000 0.000000 0.000000 0.000000 72.998451 0.000001 -0.000001 83.963417 -0.000000 0.000000 35.999218 0.000000 0.000000 0.000000 1.998697 0.000000 0.000000 0.000000 0.201081 0.000000 -0.092672 0.000000 -36.000950 -3.002896 -0.000651 77.996605 -0.000001 0.000001 37.997963 0.000000 0.000000 
0.000000 17.999720 0.000000 -90.001877 0.000000 0.000000 0.000000 0.000000 0.000000 -0.082183 0.000000 0.000000 0.000000 1.998697 0.000000 0.000000 15.064940 0.000000 0.000000 0.000000 0.000000 -73.002808 0.000000 0.000000 -84.632675 0.000000 0.000000 -39.001785 0.000000 0.000000 0.000000 0.000000 0.000000 72.998451 0.000001 -0.000001 84.357307 -0.000000 0.000000 35.999222 0.000000 0.000000 0.000000 1.998697 0.000000 0.000000 0.000000 0.201081 0.000000 -0.092672 0.000000 -36.000950 -3.002896 -0.000651 77.996605 -0.000001 0.000001 37.997963 0.000000 0.000000 
0.000000 17.999720 0.000000 -90.001862 0.000000 0.000000 0.000000 0.000000 0.000000 -0.082183 0.000000 0.000000 0.000000 1.998696 0.000000 0.000000 14.236740 0.000000 0.000000 0.000000 0.000000 -73.002808 0.000000 0.000000 -85.239021 0.000000 0.000000 -39.001785 0.000000 0.000000 0.000000 0.000000 0.000000 72.998444 0.000001 -0.000001 84.751297 -0.000000 0.000000 35.999214 0.000000 0.000000 0.000000 1.998696 0.000000 0.000000 0.000000 0.201081 0.000000 -0.092672 0.000000 -36.000950 -3.002896 -0.000651 77.996605 -0.000001 0.000001 37.997963 0.000000 0.000000 
0.000000 17.999720 0.000000 -90.001877 0.000000 0.000000 0.000000 0.000000 0.000000 -0.082183 0.000000 0.000000 0.000000 1.998697 0.000000 0.000000 13.407038 0.000000 0.000000 0.000000 0.000000 -73.002800 0.000000 0.000000 -85.845695 0.000000 0.000000 -39.001785 0.000000 0.000000 0.000000 0.000000 0.000000 72.998451 0.000001 -0.000001 85.145363 -0.000000 0.000000 35.999218 0.000000 0.000000 0.000000 1.998697 0.000000 0.000000 0.000000 0.201081 0.000000 -0.092672 0.000000 -36.000950 -3.002896 -0.000651 77.996605 -0.000001 0.000001 37.997963 0.000000 0.000000 
0.000000 17.999720 0.000000 -90.001877 0.000000 0.000000 0.000000 0.000000 0.000000 -0.082183 0.000000 0.000000 0.000000 1.998697 0.000000 0.000000 12.575924 0.000000 0.000000 0.000000 0.000000 -73.002808 0.000000 0.000000 -86.452644 0.000000 0.000000 -39.001785 0.000000 0.000000 0.000000 0.000000 0.000000 72.998451 0.000001 -0.000001 85.539536 -0.000000 0.000000 35.999218 0.000000 0.000000 0.000000 1.998697 0.000000 0.000000 0.000000 0.201081 0.000000 -0.092672 0.000000 -36.000946 -3.002896 -0.000651 77.996605 -0.000001 0.000001 37.997963 0.000000 0.000000 
0.000000 17.999720 0.000000 -90.001877 0.000000 0.000000 0.000000 0.000000 0.000000 -0.082183 0.000000 0.000000 0.000000 1.998697 0.000000 0.000000 11.743478 0.000000 0.000000 0.000000 0.000000 -73.002808 0.000000 0.000000 -87.059875 0.000000 0.000000 -39.001785 0.000000 0.000000 0.000000 0.000000 0.000000 72.998451 0.000001 -0.000001 85.933754 -0.000000 0.000000 35.999218 0.000000 0.000000 0.000000 1.998697 0.000000 0.000000 0.000000 0.201081 0.000000 -0.092672 0.000000 -36.000950 -3.002896 -0.000651 77.996605 -0.000001 0.000001 37.997963 0.000000 0.000000 
0.000000 17.999720 0.000000 -90.001877 0.000000 0.000000 0.000000 0.000000 0.000000 -0.082183 0.000000 0.000000 0.000000 1.998697 0.000000 0.000000 10.909784 0.000000 0.000000 0.000000 0.000000 -73.002808 0.000000 0.000000 -87.667313 0.000000 0.000000 -39.001785 0.000000 0.000000 0.000000 0.000000 0.000000 72.998451 0.000001 -0.000001 86.328026 -0.000000 0.000000 35.999218 0.000000 0.000000 0.000000 1.998697 0.000000 0.000000 0.000000 0.201081 0.000000 -0.092672 0.000000 -36.000950 -3.002896 -0.000651 77.996605 -0.000001 0.000001 37.997963 0.000000 0.000000 
0.000000 17.999720 0.000000 -90.001877 0.000000 0.000000 0.000000 0.000000 0.000000 -0.082183 0.000000 0.000000 0.000000 1.998697 0.000000 0.000000 10.074932 0.000000 0.000000 0.000000 0.000000 -73.002808 0.000000 0.000000 -88.274948 0.000000 0.000000 -39.001785 0.000000 0.000000 0.000000 0.000000 0.000000 72.998451 0.000001 -0.000001 86.722382 -0.000000 0.000000 35.999218 0.000000 0.000000 0.000000 1.998697 0.000000 0.000000 0.000000 0.201081 0.000000 -0.092672 0.000000 -36.000950 -3.002896 -0.000651 77.996605 -0.000001 0.000001 37.997963 0.000000 0.000000 
0.000000 17.999720 0.000000 -90.001884 0.000000 0.000000 0.000000 0.000000 0.000000 -0.082183 0.000000 0.000000 0.000000 1.998697 0.000000 0.000000 9.239007 0.000000 0.000000 0.000000 0.000000 -73.002808 0.000000 0.000000 -88.882721 0.000000 0.000000 -39.001785 0.000000 0.000000 0.000000 0.000000 0.000000 72.998451 0.000001 -0.000001 87.116753 -0.000000 0.000000 35.999218 0.000000 0.000000 0.000000 1.998697 0.000000 0.000000 0.000000 0.201081 0.000000 -0.092672 0.000000 -36.000950 -3.002896 -0.000651 77.996605 -0.000001 0.000001 37.997963 0.000000 0.000000 
0.000000 17.999720 0.000000 -90.001884 0.000000 0.000000 0.000000 0.000000 0.000000 -0.082183 0.000000 0.000000 0.000000 1.998697 0.000000 0.000000 8.402095 0.000000 0.000000 0.000000 0.000000 -73.002808 0.000000 0.000000 -89.490639 0.000000 0.000000 -39.001785 0.000000 0.000000 0.000000 0.000000 0.000000 72.998459 0.000001 -0.000001 87.511169 -0.000001 0.000001 35.999218 0.000000 0.000000 0.000000 1.998697 0.000000 0.000000 0.000000 0.201081 0.000000 -0.092672 0.000000 -36.000950 -3.002896 -0.000651 77.996605 -0.000001 0.000001 37.997963 0.000000 0.000000 
0.000000 17.999720 0.000000 -90.001877 0.000000 0.000000 0.000000 0.000000 0.000000 -0.082183 0.000000 0.000000 0.000000 1.998697 0.000000 0.000000 7.564284 0.000000 0.000000 0.000000 0.000000 -73.002808 0.000000 0.000000 -90.098618 0.000000 0.000000 -39.001785 0.000000 0.000000 0.000000 0.000000 0.000000 72.998451 0.000001 -0.000001 87.905594 -0.000001 0.000001 35.999222 0.000000 0.000000 0.000000 1.998697 0.000000 0.000000 0.000000 0.201081 0.000000 -0.092672 0.000000 -36.000950 -3.002896 -0.000651 77.996605 -0.000001 0.000001 37.997963 0.000000 0.000000 
